<svg xmlns="http://www.w3.org/2000/svg" width="48.322" height="48.322" viewBox="0 0 48.322 48.322">
  <g id="Group_92" data-name="Group 92" transform="translate(-250.866 -127.559)">
    <g id="Group_91" data-name="Group 91" transform="translate(250.866 158.974)">
      <path id="Path_51" data-name="Path 51" d="M253.265,356.314v5.894h-2.4V348.7h2.4v5.5h5.762v-5.5h2.4v13.507h-2.4v-5.894Z" transform="translate(-250.866 -348.701)" fill="#999795"/>
      <path id="Path_52" data-name="Path 52" d="M333.775,387.285l1.549-3.665c-1.134-3-2.512-6.536-3.74-9.653h2.531c1.1,3.155,1.719,5.138,2.418,7.084.6-1.644,1.606-4.742,2.418-7.084h2.475c-1.738,4.383-3.457,8.784-5.308,13.318Z" transform="translate(-320.117 -370.378)" fill="#999795"/>
      <path id="Path_53" data-name="Path 53" d="M406.995,362.208v-1.4a3.941,3.941,0,0,1-3.419,1.625c-2.7,0-4.572-2.116-4.572-5.214,0-3,1.795-5.252,4.628-5.252a3.878,3.878,0,0,1,3.249,1.587c-.019-.7-.019-1.284-.019-1.964V348.7h2.3v13.507Zm-5.629-4.949c0,1.889,1.02,3.306,2.739,3.306,1.795,0,2.871-1.436,2.871-3.381,0-1.908-1.19-3.306-2.852-3.306C402.385,353.877,401.365,355.369,401.365,357.258Z" transform="translate(-377.96 -348.701)" fill="#999795"/>
      <path id="Path_54" data-name="Path 54" d="M483.091,372.465v.68c0,.227,0,.453-.019.661a2.389,2.389,0,0,1,2.4-1.568,3.685,3.685,0,0,1,.548.038v2.191a2.358,2.358,0,0,0-.661-.076c-1.794,0-2.116,1.284-2.116,3.325V382.4h-2.3v-8.142c0-.623,0-1.19-.019-1.795Z" transform="translate(-448.238 -368.894)" fill="#999795"/>
      <path id="Path_55" data-name="Path 55" d="M528.39,376.881a4.962,4.962,0,0,1-5.233,5.252,4.908,4.908,0,0,1-5.138-5.252,5.187,5.187,0,1,1,10.371,0Zm-8.01-.019c0,2.021,1.039,3.344,2.777,3.344,1.757,0,2.8-1.322,2.8-3.344,0-1.965-1.058-3.363-2.8-3.363C521.438,373.5,520.38,374.9,520.38,376.862Z" transform="translate(-480.068 -368.324)" fill="#999795"/>
    </g>
    <path id="Path_56" data-name="Path 56" d="M344.409,127.559H332.384a.648.648,0,0,0,0,1.3,11.376,11.376,0,0,1,0,22.753.648.648,0,0,0,0,1.3h12.025a12.673,12.673,0,0,0,0-25.346Zm-2.133,23.892a12.664,12.664,0,0,0,0-22.438,11.375,11.375,0,0,1,0,22.438Zm2.781-11.219a12.684,12.684,0,0,0-6.784-11.218,11.374,11.374,0,0,1,0,22.436A12.684,12.684,0,0,0,345.057,140.232Zm1.227,11.219a12.664,12.664,0,0,0,0-22.438,11.375,11.375,0,0,1,0,22.438Z" transform="translate(-69.382 0)" fill="#999795"/>
  </g>
</svg>
